<svg xmlns="http://www.w3.org/2000/svg" viewBox="0 0 88.65 126.74"><defs><style>.cls-1{fill:#231f20;}</style></defs><g id="Layer_2" data-name="Layer 2"><g id="Layer_1-2" data-name="Layer 1"><rect class="cls-1" x="-12.98" y="35.23" width="54.26" height="8.23" transform="translate(-27.38 44.28) rotate(-77)"/><polygon class="cls-1" points="41.11 66.71 49.34 66.05 49.34 0 41.11 0 41.11 66.71"/><polygon class="cls-1" points="23.16 79.29 22.74 72.67 0 74 0.42 80.62 23.16 79.29"/><polygon class="cls-1" points="23.16 100.58 20.8 93.29 0 93.95 0.42 100.58 23.16 100.58"/><polygon class="cls-1" points="54.52 68.92 62.75 68.92 63.78 4.75 54.52 2.88 54.52 68.92"/><path class="cls-1" d="M66.77,79.79l-3.06-7.21L53,77.15s.56,25.37,2.24,12.5,11.58-9.86,11.58-9.86"/><polygon class="cls-1" points="29.42 66.05 38.13 64.19 25.92 11.32 17.9 13.18 29.42 66.05"/><rect class="cls-1" x="15.87" y="30.21" width="8.23" height="31.76" transform="translate(-26.45 65.26) rotate(-89)"/><path class="cls-1" d="M38.66,80.81s.19,2.22-5.9,2.94c-5.49.65-10.22,3.26-7.55,9.46s12.92,4,14.36-1.5c.11-.4,1.83-5.87,1.83-5.87l-2.74,4.89s-5.35,5-7.51,1.83c-3.52-5.09,4.11-4.9,7.18-6.4,4.15-2,2.55-5,2.55-5Z"/><path class="cls-1" d="M25.8,81.92s.39-6.78,8.75-6.78,8.81,3.91,8.81,11.41v9.79l-4.83.2V86.68s.65-5.74-1.44-6.72-6.39-1.25-6.39,2.35Z"/><path class="cls-1" d="M77.49,100.57c6.61,0,11.16-3.62,11.16-9.63,0-7-4.91-8.41-9.36-9.46C75.52,80.6,72,80.37,72,77.8c0-2.16,1.81-3.33,4.55-3.33,3,0,4.8,1.17,5.11,4.38H88c-.52-6-4.39-9.93-11.37-9.93-6,0-10.81,3.1-10.81,9.58s4.66,8,9.41,9c3.62.82,7,1.11,7,4,0,2.1-1.76,3.45-4.86,3.45s-5.32-1.52-5.79-5H65.08c.41,6.37,4.7,10.57,12.41,10.57"/><polygon class="cls-1" points="20.8 90.15 20.38 83.53 0 83.48 0.42 90.1 20.8 90.15"/><rect class="cls-1" x="48.09" y="75.42" width="6.69" height="25.15"/><path class="cls-1" d="M47.05,110a6.47,6.47,0,0,1,.63-2.68,7.25,7.25,0,0,1,1.93-2.16l.58-.43a3.89,3.89,0,0,1,.39-.28,1.4,1.4,0,0,1,.36-.13l1-.27a6.31,6.31,0,0,1,1.22-.26c.59,0,1.21,0,1.81,0a4.45,4.45,0,0,1,1.15.18,3.1,3.1,0,0,1,.95.3l.42.31L58,105a3.66,3.66,0,0,1,.4.57c.18.28.34.56.49.85a10.78,10.78,0,0,1,.53,1.37,4.54,4.54,0,0,1,.24,1.79c0,.36-.18.68-.23,1,0,.13,0,.26,0,.4s-.06.23,0,.3c-.49,0-1,0-1.48,0s-1.2,0-1.8,0-1.37,0-2,0a1.19,1.19,0,0,0,.47-.78,7.68,7.68,0,0,0,0-1.44,1.47,1.47,0,0,0-.38-1,2.4,2.4,0,0,0-1.06-.49,3,3,0,0,0-2.77.59,3.51,3.51,0,0,0-.84,1.11c-.08.19-.11.4-.18.59a1.08,1.08,0,0,1-.36,0c-.22,0-.44,0-.67-.06h-.85s-.11.06-.14,0"/><path class="cls-1" d="M55.29,110.07a2.44,2.44,0,0,1-.29.27c-.43.37-.75.83-1.15,1.23-.89.88-2,1.52-2.91,2.36a35,35,0,0,0-2.78,2.93c-.81.89-1.58,1.81-2.37,2.71a12.67,12.67,0,0,0-1.37,1.64.44.44,0,0,0-.09.36c0,.29.08.57.09.86,0,.07,0,.27,0,.34.12.24,1.14,0,1.26,0a16.33,16.33,0,0,1,1.85,0c.38,0,.77,0,1.15,0a3,3,0,0,0,.73.09.4.4,0,0,1,.14-.26c.53-.77,1.26-1.47,1.86-2.18s1.07-1.32,1.62-2,1.35-1.38,2-2.12c.28-.36.56-.71.85-1.05s.73-.8,1.06-1.22.8-1.07,1.24-1.58a9.3,9.3,0,0,0,1.12-1.25c.09-.16.11-.14,0-.32s-.32-.44-.53-.47"/><polygon class="cls-1" points="44.33 121.38 44.33 125.42 60.76 125.42 60.76 121.06 44.33 121.38"/><polygon class="cls-1" points="12.13 121.25 12.13 126.74 25.19 126.74 25.19 120.81 12.13 121.25"/><polygon class="cls-1" points="62.27 117.98 62.71 122.94 77.82 122.94 77.82 117.6 62.27 117.98"/><path class="cls-1" d="M64.61,110.13a13.58,13.58,0,0,1,2.46.18c.28.07.28.07.46-.19a6.58,6.58,0,0,1,.56-.88,2.67,2.67,0,0,1,1-.73,1.76,1.76,0,0,1,1.21-.16,1.25,1.25,0,0,1,.65.37,1.73,1.73,0,0,1,.17,1,4,4,0,0,1-.14.46,3.08,3.08,0,0,1-.17.68c-.12.24-.39.4-.56.58a7.68,7.68,0,0,1-.78.63A19.29,19.29,0,0,0,68,113.52c-.24.25-.48.52-.73.77s-.48.38-.69.62-.42.39-.6.61a6.76,6.76,0,0,1-.58.72,6.27,6.27,0,0,0-.68.86,5.38,5.38,0,0,0-.38.66,5.72,5.72,0,0,1-.4.46c-.2.24-.33.51-.55.73s-.43.69-.67.68l0,.13c-.22,0-.11.14,0,.24s.05.11.11.16a1.42,1.42,0,0,0,.64.17,6.15,6.15,0,0,0,1.12-.15,5.48,5.48,0,0,1,.7,0c.27,0,.53-.08.79-.09A3.91,3.91,0,0,0,67,120c.37-.11.59-.45.86-.73s.43-.42.63-.66c.45-.51.89-1,1.37-1.47a33.52,33.52,0,0,0,2.52-3.25c.14-.18.25-.37.38-.56s.23-.23.32-.37c.26-.35.53-.68.79-1a8.24,8.24,0,0,1,.56-.62,1.67,1.67,0,0,1,.28-.25,2.92,2.92,0,0,0,.29-.4c.18-.21.43-.35.61-.56a3.67,3.67,0,0,0,.26-.48c.15-.33.32-.69.44-1a4.8,4.8,0,0,0,.18-1.77,3.14,3.14,0,0,0-.19-.73,5.19,5.19,0,0,0-.54-1c-.83-1.33-2.67-1.57-4.06-1.31-.26,0-.54.12-.81.14s-.28,0-.41,0-.18.07-.28.09-.21,0-.31,0-.37.12-.57.16l-.71.14a1.31,1.31,0,0,0-.43.16,4.9,4.9,0,0,0-1.34.87c-.27.26-.52.53-.77.8a7.64,7.64,0,0,0-.88,1.35,8,8,0,0,1-.83,1.3"/><path class="cls-1" d="M39.65,116.72c0,.4-.07.78-.07,1.17s-.11.85-.13,1.28a4.33,4.33,0,0,1-.08.87c-.07.27-.15.55-.24.81a2.17,2.17,0,0,1-.39.56,2.64,2.64,0,0,1-.49.57,3.3,3.3,0,0,1-1,.55,5.76,5.76,0,0,1-1.79.27c-.12,0-.26,0-.38,0s-.14,0-.2-.06a.86.86,0,0,1-.28,0,2.34,2.34,0,0,1-.39-.25,10.65,10.65,0,0,1-1.5-1,2.78,2.78,0,0,1-.67-.88,7.48,7.48,0,0,1-.74-1.94c-.05-.25-.05-.5-.09-.76s-.07-.44-.09-.67c0-.51-.11-1-.13-1.52a12,12,0,0,1,0-2.24,10.88,10.88,0,0,1,.37-2.2c.09-.24.11-.46.22-.69s.11-.34.19-.51a1.58,1.58,0,0,1,.79-.67,7.43,7.43,0,0,1,.95-.43,1.29,1.29,0,0,1,.52-.08h.2c0-.26.91-.33,1.08-.33a7.9,7.9,0,0,1,1.88.12,2.65,2.65,0,0,1,.65.33.78.78,0,0,1,.26.21,2.72,2.72,0,0,1,.32.25l.2.29a3.57,3.57,0,0,1,.41.91,10.3,10.3,0,0,1,.4,1.37,8.6,8.6,0,0,1,.19,1.13c.07,1.19.11,2.39.07,3.58m3.15-1.57a30.45,30.45,0,0,0-.21-3.93c-.07-.49-.1-1-.18-1.5s-.19-.79-.26-1.19a4.09,4.09,0,0,0-.77-2.1,3.36,3.36,0,0,0-1.09-.58,3.07,3.07,0,0,0-.45-.2c-.32-.09-.69-.1-1-.17a2.65,2.65,0,0,0-.74-.11h-.13c0-.16-.34-.24-.48-.28a4,4,0,0,0-1.13-.18c-.47,0-.93-.16-1.4-.14a8.34,8.34,0,0,0-.87.16,7.18,7.18,0,0,0-1,.19c-.29.1-.58.26-.85.38a5.07,5.07,0,0,0-1.09.61,6.55,6.55,0,0,0-.65.64c-.26.26-.54.51-.78.8a6.48,6.48,0,0,0-1,1.49,5.93,5.93,0,0,0-.33.92,10,10,0,0,0-.28,1.53c0,.33,0,.65-.05,1s-.07.81-.07,1.22c0,.75.11,1.51.15,2.26a26.85,26.85,0,0,0,.48,3.68,10.7,10.7,0,0,0,1.15,3.63,6,6,0,0,0,1,1,3.79,3.79,0,0,0,1.68.94,20.34,20.34,0,0,0,2.07.36,13,13,0,0,0,2.85.22,5.77,5.77,0,0,0,1.82-.44,5.53,5.53,0,0,0,1.66-1.14,4.22,4.22,0,0,0,1-1.43c.1-.25.18-.49.26-.74a9.9,9.9,0,0,0,.59-2.26c.06-.75,0-1.49.13-2.23s0-1.62,0-2.43"/><path class="cls-1" d="M13.42,111a4.83,4.83,0,0,0,.65-1.51,8.75,8.75,0,0,1,1.25-2.18,4.47,4.47,0,0,1,1.39-1.24,4.89,4.89,0,0,1,1.56-.38,8.76,8.76,0,0,1,3.57,0,5.64,5.64,0,0,1,2.15.92,7.17,7.17,0,0,1,2.22,2.58,4.44,4.44,0,0,1-.18,3,2.71,2.71,0,0,1-.83,1.27c-.53.54-1.11,1-1.67,1.53a27.1,27.1,0,0,0-3.33,3.36A7.8,7.8,0,0,0,19,120.26c-.12.3-.59,1.09-.39,1.43a16.32,16.32,0,0,0-2.1,0c-.67,0-1.34,0-2,0-.4,0-.8.07-1.2.08a2.94,2.94,0,0,0-.59,0,1.64,1.64,0,0,1-.48.07c.4-.48.44-1.1.76-1.63A12.19,12.19,0,0,1,14.08,119c.32-.4.57-.84.92-1.23a24.31,24.31,0,0,1,3.13-2.68,12,12,0,0,0,2.67-2.65,3.8,3.8,0,0,0,.77-2.46,1.23,1.23,0,0,0-1.22-1,2.39,2.39,0,0,0-1.92.9,3.17,3.17,0,0,0-.81,1.56.45.45,0,0,1-.25,0,10.55,10.55,0,0,0-1.59,0c-.54,0-1.11.12-1.65.11-.17,0-.46.07-.61,0s-.06-.16,0-.31"/></g></g></svg>